<svg id="Layer_1" data-name="Layer 1" xmlns="http://www.w3.org/2000/svg" xmlns:xlink="http://www.w3.org/1999/xlink" viewBox="0 0 233.4 88.27"><defs><style>.cls-1,.cls-3{fill:none;stroke-width:4px;}.cls-1{stroke:#fff;}.cls-1,.cls-3,.cls-4{stroke-miterlimit:10;}.cls-2{fill:url(#linear-gradient);}.cls-3,.cls-4{stroke:#939598;}.cls-4{fill:#939598;stroke-width:3px;}</style><linearGradient id="linear-gradient" x1="77.87" y1="34.77" x2="226.99" y2="34.77" gradientUnits="userSpaceOnUse"><stop offset="0.08" stop-color="#ed1c24"/><stop offset="0.17" stop-color="#f05828"/><stop offset="0.4" stop-color="#f9ed32"/><stop offset="0.41" stop-color="#d0de35"/><stop offset="0.45" stop-color="#6aba3c"/><stop offset="0.48" stop-color="#009444"/><stop offset="0.69" stop-color="#2b3990"/><stop offset="0.96" stop-color="#662d91"/></linearGradient></defs><title>Artboard 1</title><path class="cls-1" d="M95,62.33s-.13-.06-.27-.35a6.48,6.48,0,0,1-.47-1.57c-.13-.69-.24-1.52-.33-2.44s-.16-1.95-.2-3-.08-2.13-.1-3.24,0-2.19,0-3.24v-.42l-1.72-.3-.12.44a40.57,40.57,0,0,1-2,5.77,27.13,27.13,0,0,1-2.43,4.49,12.42,12.42,0,0,1-2.62,2.87,4.11,4.11,0,0,1-2.45,1c-1.29,0-2.23-1-2.88-3a34.7,34.7,0,0,1-1-9.81V47.84q0-.71,0-1.42t.09-1.54l.15-2c0-.18.06-.51.13-1s.17-1,.31-1.58a16.17,16.17,0,0,1,.57-1.83,7.32,7.32,0,0,1,.88-1.67,4.83,4.83,0,0,1,1.22-1.21,2.72,2.72,0,0,1,1.58-.44l.66.06a2.89,2.89,0,0,1,1.72.42,1.12,1.12,0,0,1,.49,1L84.06,53l1.29-.1.12-.28c.86-2,1.62-3.84,2.25-5.48s1.22-3.12,1.75-4.43,1-2.43,1.54-3.39A10.63,10.63,0,0,1,92.57,37a5.38,5.38,0,0,1,1.81-1.33,6,6,0,0,1,2.42-.44,2.82,2.82,0,0,1,1.68.41,1.12,1.12,0,0,1,.49,1L96.47,53l1.33-.1L104.93,37a2.75,2.75,0,0,1,1.3-1.21,5.33,5.33,0,0,1,2.55-.57,4.3,4.3,0,0,1,2.42.6,1.56,1.56,0,0,1,.8,1.36,5.73,5.73,0,0,1-.26,1.62c-.18.61-.38,1.18-.59,1.7s-.41,1-.6,1.33l-.33.64-1.18,2.15-1,1.76c-.33.58-.63,1.14-.89,1.65l-.1.19.07.2a9,9,0,0,0,1.12,2.17,7.69,7.69,0,0,0,1.48,1.51,3.58,3.58,0,0,0,2.27.75,6.54,6.54,0,0,0,2.42-.55,19.71,19.71,0,0,0,2.44-1.19c.63-.35,1.28-.74,1.94-1.17v5.68a19.16,19.16,0,0,1-3.67,1.77,11.42,11.42,0,0,1-3.8.7,10.61,10.61,0,0,1-2.7-.33,6.2,6.2,0,0,1-2.17-1,5,5,0,0,1-1.46-1.8,6.4,6.4,0,0,1-.58-2.73l-1-.19a45,45,0,0,1-2.06,4.24,22.79,22.79,0,0,1-2.18,3.28,10.49,10.49,0,0,1-2.21,2.1A3.7,3.7,0,0,1,95,62.33Z"/><path class="cls-1" d="M127.53,62.33a10.54,10.54,0,0,1-4.6-.95,9.51,9.51,0,0,1-3.27-2.55,11,11,0,0,1-2-3.73,15.11,15.11,0,0,1-.67-4.5,20.17,20.17,0,0,1,1.27-6.88,18.38,18.38,0,0,1,1.61-3.27,12.86,12.86,0,0,1,2.24-2.71A10.33,10.33,0,0,1,125,35.91a8.69,8.69,0,0,1,3.48-.68,8.14,8.14,0,0,1,2.87.5,7,7,0,0,1,2.28,1.38,6.24,6.24,0,0,1,1.5,2.13,7,7,0,0,1,.54,2.82,7.71,7.71,0,0,1-.84,3.41,12.8,12.8,0,0,1-2.38,3.3,17,17,0,0,1-3.66,2.79,19.72,19.72,0,0,1-4.61,1.91l-.61.17.31.56a9.84,9.84,0,0,0,.91,1.39,4.44,4.44,0,0,0,1,.92,3.38,3.38,0,0,0,1.08.48,4.93,4.93,0,0,0,1.16.13,11.47,11.47,0,0,0,3.88-.73,24.77,24.77,0,0,0,3.87-1.79,32.73,32.73,0,0,0,3.54-2.34c.94-.71,1.77-1.4,2.47-2.05l3.1,3.22a38.18,38.18,0,0,1-5.07,4.31c-.82.57-1.72,1.15-2.67,1.71a24.11,24.11,0,0,1-3,1.48,20.72,20.72,0,0,1-3.23,1A15,15,0,0,1,127.53,62.33Zm1.58-22.5a5.1,5.1,0,0,0-2.39.53,5.19,5.19,0,0,0-1.65,1.35,6.83,6.83,0,0,0-1,1.83,12.15,12.15,0,0,0-.58,2,15.09,15.09,0,0,0-.26,1.94c0,.62-.06,1.15-.06,1.58v.5h.5a6.32,6.32,0,0,0,2.5-.58,10.89,10.89,0,0,0,2.43-1.46,10.28,10.28,0,0,0,1.89-1.94,3.78,3.78,0,0,0,.83-2.23,4.85,4.85,0,0,0-.55-2.42A1.85,1.85,0,0,0,129.11,39.83Z"/><path class="cls-1" d="M151.67,62.33a17.7,17.7,0,0,1-4.8-.67,36,36,0,0,1-4.38-1.52,34.37,34.37,0,0,1-4.11-2c.06-1.49.18-3.19.34-5s.37-3.77.64-6.06.65-4.94,1.11-7.79c.31-1.88.7-4,1.17-6.38s1-4.73,1.65-7.12,1.34-4.74,2.13-7a40.4,40.4,0,0,1,2.6-6,16.49,16.49,0,0,1,3.07-4.15,4.81,4.81,0,0,1,3.36-1.48,6.8,6.8,0,0,1,3.33.7,4.89,4.89,0,0,1,1.89,1.88,8,8,0,0,1,.91,2.88,28,28,0,0,1,.23,3.68,16.87,16.87,0,0,1-1,5.58,36.14,36.14,0,0,1-2.67,5.82,58.16,58.16,0,0,1-3.7,5.71c-1.36,1.86-2.74,3.63-4.1,5.28L149,39l1.3.89.29-.36a29,29,0,0,1,2.95-3.24,3.61,3.61,0,0,1,2.37-1.11,5.68,5.68,0,0,1,2.83.7,6.87,6.87,0,0,1,2.13,1.89,8.93,8.93,0,0,1,1.36,2.75,11.28,11.28,0,0,1,.48,3.28c0,1,0,1.91-.12,2.78a17.32,17.32,0,0,1-.41,2.53,15.27,15.27,0,0,1-.82,2.45A16.9,16.9,0,0,1,160,54.11l.67.71q1-.61,2.12-1.19c.73-.4,1.48-.84,2.21-1.31s1.5-1,2.25-1.59A23.82,23.82,0,0,0,169,49.14l1.8,3.86A28.14,28.14,0,0,1,168,55.26a24.82,24.82,0,0,1-3.22,1.85,27.31,27.31,0,0,1-3.45,1.37c-1.2.38-2.49.74-3.84,1l-.14,0-.1.1a6.11,6.11,0,0,1-1.26.92c-.56.32-1.12.62-1.68.89s-1.26.58-2,.86Zm1.14-21.45a5.85,5.85,0,0,0-2.24.46,6.29,6.29,0,0,0-2.07,1.43,9.08,9.08,0,0,0-1.65,2.42,12.81,12.81,0,0,0-1,3.49q-.27,1.59-.44,2.93T145.08,54c-.08.79-.15,1.53-.21,2.21l0,.4.39.12c.66.2,1.33.37,2,.51s1.18.23,1.81.33a12.09,12.09,0,0,0,1.86.15A3.56,3.56,0,0,0,153,57a6.34,6.34,0,0,0,1.59-1.7A11.77,11.77,0,0,0,155.74,53a19.49,19.49,0,0,0,.78-2.69,27.56,27.56,0,0,0,.45-2.75,23.16,23.16,0,0,0,.15-2.5,6.4,6.4,0,0,0-.18-1.51,3.29,3.29,0,0,0-.69-1.36,3.52,3.52,0,0,0-1.36-.94A5.51,5.51,0,0,0,152.81,40.88Zm1.38-29.18a2.1,2.1,0,0,0-1.61,1,11.65,11.65,0,0,0-1.31,2.36A34.88,34.88,0,0,0,150,18.42c-.39,1.24-.78,2.56-1.15,3.92s-.72,2.76-1,4.17-.62,2.75-.88,4-.5,2.42-.69,3.47-.35,1.89-.47,2.54l.94.32c.52-1,1.11-2.06,1.76-3.14s1.32-2.24,2-3.42,1.33-2.42,2-3.65,1.23-2.55,1.75-3.85a33,33,0,0,0,1.31-4,23.66,23.66,0,0,0,.67-4.18,5.19,5.19,0,0,0,0-.59,3.69,3.69,0,0,0-.24-.92,2.89,2.89,0,0,0-.55-.89A1.52,1.52,0,0,0,154.19,11.7Z"/><path class="cls-1" d="M179.5,62.33a17.7,17.7,0,0,1-4.8-.67,36,36,0,0,1-4.38-1.52,34.37,34.37,0,0,1-4.11-2c.06-1.49.18-3.19.34-5s.37-3.77.64-6.06.65-4.94,1.11-7.79c.31-1.88.7-4,1.17-6.38s1-4.73,1.65-7.12,1.34-4.74,2.13-7a40.4,40.4,0,0,1,2.6-6,16.49,16.49,0,0,1,3.07-4.15,4.81,4.81,0,0,1,3.36-1.48,6.8,6.8,0,0,1,3.33.7,4.89,4.89,0,0,1,1.89,1.88,8,8,0,0,1,.91,2.88,28,28,0,0,1,.23,3.68,16.87,16.87,0,0,1-1,5.58A36.14,36.14,0,0,1,185,27.61a58.16,58.16,0,0,1-3.7,5.71c-1.36,1.86-2.74,3.63-4.1,5.28l-.35.42,1.3.89.29-.36a29,29,0,0,1,2.95-3.24,3.61,3.61,0,0,1,2.37-1.11,5.68,5.68,0,0,1,2.83.7,6.87,6.87,0,0,1,2.13,1.89A8.93,8.93,0,0,1,190,40.53a11.28,11.28,0,0,1,.48,3.28c0,1,0,1.91-.12,2.78a17.32,17.32,0,0,1-.41,2.53,15.27,15.27,0,0,1-.82,2.45,16.9,16.9,0,0,1-1.38,2.53l.67.71q1-.61,2.12-1.19c.73-.4,1.48-.84,2.21-1.31s1.5-1,2.25-1.59a23.82,23.82,0,0,0,1.82-1.58l1.8,3.86a28.14,28.14,0,0,1-2.88,2.26,24.82,24.82,0,0,1-3.22,1.85,27.31,27.31,0,0,1-3.45,1.37c-1.2.38-2.49.74-3.84,1l-.14,0-.1.1a6.11,6.11,0,0,1-1.26.92c-.56.32-1.12.62-1.68.89s-1.26.58-2,.86Zm1.14-21.45a5.85,5.85,0,0,0-2.24.46,6.29,6.29,0,0,0-2.07,1.43,9.08,9.08,0,0,0-1.65,2.42,12.81,12.81,0,0,0-1,3.49q-.27,1.59-.44,2.93T172.91,54c-.08.79-.15,1.53-.21,2.21l0,.4.39.12c.66.2,1.33.37,2,.51s1.18.23,1.81.33a12.09,12.09,0,0,0,1.86.15,3.56,3.56,0,0,0,2.11-.68,6.34,6.34,0,0,0,1.59-1.7A11.77,11.77,0,0,0,183.57,53a19.49,19.49,0,0,0,.78-2.69,27.56,27.56,0,0,0,.45-2.75A23.16,23.16,0,0,0,185,45a6.4,6.4,0,0,0-.18-1.51,3.29,3.29,0,0,0-.69-1.36,3.52,3.52,0,0,0-1.36-.94A5.51,5.51,0,0,0,180.64,40.88ZM182,11.7a2.1,2.1,0,0,0-1.61,1,11.65,11.65,0,0,0-1.31,2.36,34.88,34.88,0,0,0-1.22,3.33c-.39,1.24-.78,2.56-1.15,3.92s-.72,2.76-1,4.17-.62,2.75-.88,4-.5,2.42-.69,3.47-.35,1.89-.47,2.54l.94.32c.52-1,1.11-2.06,1.76-3.14s1.32-2.24,2-3.42,1.33-2.42,2-3.65,1.23-2.55,1.75-3.85a33,33,0,0,0,1.31-4,23.66,23.66,0,0,0,.67-4.18,5.19,5.19,0,0,0,0-.59,3.69,3.69,0,0,0-.24-.92,2.89,2.89,0,0,0-.55-.89A1.52,1.52,0,0,0,182,11.7Z"/><path class="cls-1" d="M216.41,62.47a3.94,3.94,0,0,1-2.87-1.1,9.73,9.73,0,0,1-2.11-3.44l-.3-.77-.54.63a13.84,13.84,0,0,1-1.67,1.61,15,15,0,0,1-2.17,1.49A13.92,13.92,0,0,1,204.3,62a7.84,7.84,0,0,1-2.48.41,6.43,6.43,0,0,1-2.54-.53,6.66,6.66,0,0,1-2.19-1.53,7.56,7.56,0,0,1-1.54-2.45,8.82,8.82,0,0,1-.58-3.29,17.1,17.1,0,0,1,.6-4.38,24.3,24.3,0,0,1,1.67-4.44,25.3,25.3,0,0,1,2.51-4.09,20.1,20.1,0,0,1,3.16-3.34,15.35,15.35,0,0,1,3.59-2.26,9.26,9.26,0,0,1,3.77-.82,1.37,1.37,0,0,1,.77.17,2.17,2.17,0,0,1,.51.49l.48.66a1.86,1.86,0,0,0,.8.64,3.18,3.18,0,0,0,.85.23,6.85,6.85,0,0,0,.81,0l.68,0h.64a3.16,3.16,0,0,1,.71.08.88.88,0,0,1,.43.25,1.47,1.47,0,0,1,.33.61,4.67,4.67,0,0,1,.14,1.29,18.32,18.32,0,0,1-.29,3q-.29,1.71-.64,3.5t-.65,3.62a21.89,21.89,0,0,0-.3,3.49,7.73,7.73,0,0,0,.27,2.31,1.52,1.52,0,0,0,1.55,1.12,3.62,3.62,0,0,0,1.5-.35,8.53,8.53,0,0,0,1.45-.86,16.16,16.16,0,0,0,1.42-1.16c.47-.43.92-.88,1.34-1.34.75-.83,1.51-1.74,2.27-2.74l1.13,5.21c-.42.57-1,1.23-1.64,2a21.65,21.65,0,0,1-2.48,2.35,15.43,15.43,0,0,1-2.92,1.87A6.8,6.8,0,0,1,216.41,62.47Zm-5.33-22.65a5.5,5.5,0,0,0-2.58.66,9.28,9.28,0,0,0-2.28,1.72,15.17,15.17,0,0,0-1.92,2.42,18.85,18.85,0,0,0-1.5,2.84,18.06,18.06,0,0,0-1,3,12.88,12.88,0,0,0-.35,2.87,10.1,10.1,0,0,0,.11,1.5A4.74,4.74,0,0,0,202,56.2a2.92,2.92,0,0,0,.85,1.06,2.27,2.27,0,0,0,1.42.44,3.13,3.13,0,0,0,2.33-1.1,9.68,9.68,0,0,0,1.61-2.38,16.78,16.78,0,0,0,1.07-2.81,17.15,17.15,0,0,0,.53-2.42l1.91-9.18Z"/><path class="cls-2" d="M92.25,48.35a41,41,0,0,1-2,5.84,27.51,27.51,0,0,1-2.48,4.57,12.85,12.85,0,0,1-2.72,3,4.57,4.57,0,0,1-2.75,1.07q-2.29,0-3.35-3.37a35,35,0,0,1-1.07-10V47.84q0-.72,0-1.44T78,44.85q.06-.83.15-2,0-.29.13-1t.32-1.63a16.52,16.52,0,0,1,.59-1.89,7.78,7.78,0,0,1,.94-1.79,5.29,5.29,0,0,1,1.35-1.33,3.23,3.23,0,0,1,1.86-.53l.7.06a3.27,3.27,0,0,1,2,.51,1.62,1.62,0,0,1,.69,1.36L84.64,52.45l.38,0q1.29-3,2.24-5.46T89,42.52q.81-2,1.55-3.43a11.08,11.08,0,0,1,1.63-2.43,5.85,5.85,0,0,1,2-1.45,6.48,6.48,0,0,1,2.62-.48,3.27,3.27,0,0,1,2,.51,1.62,1.62,0,0,1,.69,1.36l-2.4,15.85.41,0,7-15.64A3.2,3.2,0,0,1,106,35.33a5.8,5.8,0,0,1,2.78-.63,4.76,4.76,0,0,1,2.7.69,2.06,2.06,0,0,1,1,1.77,6.19,6.19,0,0,1-.28,1.76q-.28.94-.6,1.74T111,42l-.32.63-1.19,2.17-1,1.76q-.5.88-.88,1.64a8.45,8.45,0,0,0,1.05,2.05,7.15,7.15,0,0,0,1.38,1.41,3.08,3.08,0,0,0,2,.64,6,6,0,0,0,2.23-.51,19.09,19.09,0,0,0,2.37-1.16q1.32-.73,2.7-1.67v6.88a19.68,19.68,0,0,1-4,2,11.86,11.86,0,0,1-4,.73,11,11,0,0,1-2.83-.35,6.66,6.66,0,0,1-2.34-1.11,5.45,5.45,0,0,1-1.61-2,6.85,6.85,0,0,1-.63-2.94,45.25,45.25,0,0,1-2.08,4.29,23.21,23.21,0,0,1-2.23,3.35A11,11,0,0,1,97.35,62a4.17,4.17,0,0,1-2.34.79q-.41,0-.72-.63a6.91,6.91,0,0,1-.51-1.7q-.21-1.07-.34-2.49t-.21-3q-.07-1.58-.1-3.25t0-3.25Z"/><path class="cls-2" d="M127.53,62.83a11,11,0,0,1-4.82-1,10,10,0,0,1-3.44-2.68,11.45,11.45,0,0,1-2.07-3.9,15.53,15.53,0,0,1-.69-4.64,20.69,20.69,0,0,1,1.3-7.06,18.8,18.8,0,0,1,1.66-3.35,13.3,13.3,0,0,1,2.33-2.81,10.77,10.77,0,0,1,3-1.93,9.15,9.15,0,0,1,3.68-.72,8.61,8.61,0,0,1,3,.53A7.47,7.47,0,0,1,134,36.74a6.71,6.71,0,0,1,1.63,2.3,7.49,7.49,0,0,1,.59,3,8.17,8.17,0,0,1-.89,3.63,13.25,13.25,0,0,1-2.48,3.43A17.47,17.47,0,0,1,129,52a20.12,20.12,0,0,1-4.73,2,9.36,9.36,0,0,0,.86,1.32,3.93,3.93,0,0,0,.86.82,2.87,2.87,0,0,0,.92.41,4.41,4.41,0,0,0,1,.12,10.92,10.92,0,0,0,3.71-.7,24.19,24.19,0,0,0,3.79-1.76,32.09,32.09,0,0,0,3.49-2.3,29.89,29.89,0,0,0,2.78-2.36l3.78,3.93a38.68,38.68,0,0,1-5.48,4.72q-1.26.88-2.71,1.73a24.49,24.49,0,0,1-3,1.51A21.1,21.1,0,0,1,131,62.43,15.39,15.39,0,0,1,127.53,62.83Zm-3.9-13.77a5.8,5.8,0,0,0,2.3-.54,10.33,10.33,0,0,0,2.31-1.39,9.72,9.72,0,0,0,1.8-1.85,3.28,3.28,0,0,0,.73-1.93,4.35,4.35,0,0,0-.48-2.17,1.39,1.39,0,0,0-1.19-.85,4.59,4.59,0,0,0-2.15.47A4.67,4.67,0,0,0,125.46,42a6.31,6.31,0,0,0-1,1.7,11.52,11.52,0,0,0-.56,1.92,14.48,14.48,0,0,0-.25,1.88Q123.63,48.41,123.63,49.06Z"/><path class="cls-2" d="M150.17,39.24a29.41,29.41,0,0,1,3-3.3,4.06,4.06,0,0,1,2.71-1.25,6.14,6.14,0,0,1,3.08.76,7.32,7.32,0,0,1,2.29,2,9.38,9.38,0,0,1,1.44,2.9,11.74,11.74,0,0,1,.5,3.43q0,1.49-.12,2.83a17.69,17.69,0,0,1-.42,2.61,15.75,15.75,0,0,1-.85,2.53,17.4,17.4,0,0,1-1.42,2.61q1.05-.62,2.14-1.2t2.18-1.29q1.1-.7,2.21-1.57a24.48,24.48,0,0,0,2.29-2l2.26,4.83a28.93,28.93,0,0,1-3.21,2.55A25.22,25.22,0,0,1,165,57.57,27.7,27.7,0,0,1,161.44,59q-1.83.59-3.88,1.05a6.57,6.57,0,0,1-1.36,1q-.86.5-1.71.91t-2.08.91h-.73a18.14,18.14,0,0,1-4.94-.69,36.47,36.47,0,0,1-4.44-1.54,34.7,34.7,0,0,1-4.42-2.23Q138,56,138.22,53q.23-2.58.64-6.08T140,39.12q.47-2.87,1.17-6.4t1.66-7.15q1-3.62,2.14-7a40.73,40.73,0,0,1,2.64-6.08,16.91,16.91,0,0,1,3.16-4.28,5.33,5.33,0,0,1,3.71-1.61,7.25,7.25,0,0,1,3.57.76,5.36,5.36,0,0,1,2.08,2.07,8.51,8.51,0,0,1,1,3.06,28.41,28.41,0,0,1,.23,3.75,17.28,17.28,0,0,1-1,5.74,36.5,36.5,0,0,1-2.71,5.9,58.4,58.4,0,0,1-3.74,5.76q-2.07,2.81-4.12,5.3Zm2.64,2.14a5.33,5.33,0,0,0-2.05.42,5.77,5.77,0,0,0-1.9,1.32,8.54,8.54,0,0,0-1.55,2.29,12.25,12.25,0,0,0-1,3.35q-.26,1.58-.44,2.92T145.57,54q-.12,1.17-.21,2.2,1,.29,1.93.5t1.79.32a11.52,11.52,0,0,0,1.79.15,3.05,3.05,0,0,0,1.82-.59A5.82,5.82,0,0,0,154.16,55a11.18,11.18,0,0,0,1.11-2.24,19,19,0,0,0,.76-2.62,26.93,26.93,0,0,0,.44-2.7,22.52,22.52,0,0,0,.15-2.45,5.87,5.87,0,0,0-.16-1.39,2.78,2.78,0,0,0-.59-1.16,3,3,0,0,0-1.17-.81A5,5,0,0,0,152.81,41.38Zm2.87-26.84c0-.08,0-.24,0-.5a3.19,3.19,0,0,0-.21-.79,2.38,2.38,0,0,0-.45-.73,1,1,0,0,0-.79-.32q-.59,0-1.22.83a11.12,11.12,0,0,0-1.25,2.26,34.14,34.14,0,0,0-1.2,3.28q-.59,1.86-1.14,3.9t-1,4.15q-.48,2.11-.88,4t-.69,3.46q-.29,1.57-.47,2.53.79-1.52,1.77-3.16t2-3.41q1-1.77,1.95-3.63t1.73-3.81a32.3,32.3,0,0,0,1.29-4A23.08,23.08,0,0,0,155.68,14.54Z"/><path class="cls-2" d="M178,39.24a29.41,29.41,0,0,1,3-3.3,4.06,4.06,0,0,1,2.71-1.25,6.14,6.14,0,0,1,3.08.76,7.32,7.32,0,0,1,2.29,2,9.38,9.38,0,0,1,1.44,2.9,11.74,11.74,0,0,1,.5,3.43q0,1.49-.12,2.83a17.69,17.69,0,0,1-.42,2.61,15.75,15.75,0,0,1-.85,2.53,17.4,17.4,0,0,1-1.42,2.61q1.05-.62,2.14-1.2t2.18-1.29q1.1-.7,2.21-1.57a24.48,24.48,0,0,0,2.29-2l2.26,4.83a28.93,28.93,0,0,1-3.21,2.55,25.22,25.22,0,0,1-3.28,1.89A27.7,27.7,0,0,1,189.27,59q-1.83.59-3.88,1.05A6.57,6.57,0,0,1,184,61q-.86.5-1.71.91t-2.08.91h-.73a18.14,18.14,0,0,1-4.94-.69,36.47,36.47,0,0,1-4.44-1.54,34.7,34.7,0,0,1-4.42-2.23q.09-2.37.35-5.36.23-2.58.64-6.08t1.11-7.81q.47-2.87,1.17-6.4t1.66-7.15q1-3.62,2.14-7a40.73,40.73,0,0,1,2.64-6.08,16.91,16.91,0,0,1,3.16-4.28,5.33,5.33,0,0,1,3.71-1.61,7.25,7.25,0,0,1,3.57.76,5.36,5.36,0,0,1,2.08,2.07,8.51,8.51,0,0,1,1,3.06,28.41,28.41,0,0,1,.23,3.75,17.28,17.28,0,0,1-1,5.74,36.5,36.5,0,0,1-2.71,5.9,58.4,58.4,0,0,1-3.74,5.76q-2.07,2.81-4.12,5.3Zm2.64,2.14a5.33,5.33,0,0,0-2.05.42,5.77,5.77,0,0,0-1.9,1.32,8.54,8.54,0,0,0-1.55,2.29,12.25,12.25,0,0,0-1,3.35q-.26,1.58-.44,2.92T173.41,54q-.12,1.17-.21,2.2,1,.29,1.93.5t1.79.32a11.52,11.52,0,0,0,1.79.15,3.05,3.05,0,0,0,1.82-.59A5.82,5.82,0,0,0,182,55a11.18,11.18,0,0,0,1.11-2.24,19,19,0,0,0,.76-2.62,26.93,26.93,0,0,0,.44-2.7,22.52,22.52,0,0,0,.15-2.45,5.87,5.87,0,0,0-.16-1.39,2.78,2.78,0,0,0-.59-1.16,3,3,0,0,0-1.17-.81A5,5,0,0,0,180.64,41.38Zm2.87-26.84c0-.08,0-.24,0-.5a3.19,3.19,0,0,0-.21-.79,2.38,2.38,0,0,0-.45-.73,1,1,0,0,0-.79-.32q-.59,0-1.22.83a11.12,11.12,0,0,0-1.25,2.26,34.14,34.14,0,0,0-1.2,3.28q-.59,1.86-1.14,3.9t-1,4.15q-.48,2.11-.88,4t-.69,3.46q-.29,1.57-.47,2.53.79-1.52,1.77-3.16t2-3.41q1-1.77,1.95-3.63t1.73-3.81a32.3,32.3,0,0,0,1.29-4A23.08,23.08,0,0,0,183.51,14.54Z"/><path class="cls-2" d="M227,55.65a27.31,27.31,0,0,1-1.8,2.2,22.08,22.08,0,0,1-2.53,2.4,15.86,15.86,0,0,1-3,1.93,7.26,7.26,0,0,1-3.22.79,4.45,4.45,0,0,1-3.22-1.25A10.16,10.16,0,0,1,211,58.11a14.22,14.22,0,0,1-1.73,1.67A15.36,15.36,0,0,1,207,61.32a14.32,14.32,0,0,1-2.53,1.13,8.29,8.29,0,0,1-2.64.44,6.89,6.89,0,0,1-2.74-.57,7.12,7.12,0,0,1-2.36-1.64,8,8,0,0,1-1.64-2.61,9.28,9.28,0,0,1-.62-3.47,17.53,17.53,0,0,1,.62-4.51,24.7,24.7,0,0,1,1.7-4.53,25.7,25.7,0,0,1,2.56-4.17A20.5,20.5,0,0,1,202.59,38a15.77,15.77,0,0,1,3.71-2.33,9.71,9.71,0,0,1,4-.86,1.83,1.83,0,0,1,1.05.26,2.67,2.67,0,0,1,.63.6l.48.66a1.36,1.36,0,0,0,.59.47,2.67,2.67,0,0,0,.72.19,6.27,6.27,0,0,0,.75,0h1.32a3.64,3.64,0,0,1,.82.09,1.38,1.38,0,0,1,.67.38,1.94,1.94,0,0,1,.45.82,5.12,5.12,0,0,1,.16,1.44,18.71,18.71,0,0,1-.29,3.12q-.29,1.71-.64,3.52t-.64,3.6a21.31,21.31,0,0,0-.29,3.41,7.34,7.34,0,0,0,.25,2.15,1,1,0,0,0,1.07.78,3.1,3.1,0,0,0,1.29-.31,8,8,0,0,0,1.36-.81A15.52,15.52,0,0,0,221.38,54q.69-.63,1.3-1.3a45,45,0,0,0,2.9-3.57Zm-25-2.31a9.56,9.56,0,0,0,.1,1.42,4.22,4.22,0,0,0,.37,1.23,2.41,2.41,0,0,0,.7.88,1.78,1.78,0,0,0,1.11.34,2.64,2.64,0,0,0,2-.94A9.13,9.13,0,0,0,207.74,54a16.18,16.18,0,0,0,1-2.72,16.57,16.57,0,0,0,.51-2.34l1.79-8.61a5,5,0,0,0-2.34.6,8.74,8.74,0,0,0-2.15,1.63,14.57,14.57,0,0,0-1.86,2.34,18.24,18.24,0,0,0-1.46,2.77,17.46,17.46,0,0,0-1,2.92A12.32,12.32,0,0,0,202,53.33Z"/><circle class="cls-3" cx="43.19" cy="33.19" r="12.36"/><path class="cls-4" d="M64.81,62.84h0a2,2,0,0,1-2.8-.31l-5.81-8.39c.12-2.78.3-4.65.36-6.09l1,1.38c1.52,2.05,2.37,3,3.14,4.09l4.71,6.58A2,2,0,0,1,64.81,62.84Z"/></svg>